<svg xmlns="http://www.w3.org/2000/svg" width="297.59" height="375.32"><path d="M239.55.8s-37.81-.8-56-.8C100.15 0 .01 3.59.01 3.59v78l153.34-.55c28.89-28.52 56.71-56.11 86.2-80.24z" fill="#244de1" data-name="Calque 2"/><path d="M297.6 375.32v-80.15l-161.24-4.65c-27.21 27.24-55.91 55.6-90.94 84.8z" fill="#244de1" data-name="Calque 3"/><path d="M287.05 70.79V3.6l-37.14-1.59s-65.73 70-127.75 146.7c-60.59 74.93-119.49 154-119.49 154V375l30.35.31s73.81-78 140.37-159.71c59-72.47 113.66-144.81 113.66-144.81z" fill="#244de1" data-name="Calque 1"/></svg>