<svg xmlns="http://www.w3.org/2000/svg" width="297.59" height="375.32" viewBox="0 0 297.59 375.32"><title>zest_new_logo_blue</title><g id="Calque_2" data-name="Calque 2"><path d="M349.31,65.94s-37.81-.8-56-.8c-83.4,0-183.54,3.59-183.54,3.59v78l153.34-.55C292,117.66,319.82,90.07,349.31,65.94Z" transform="translate(-109.76 -65.14)" style="fill:#244de1"/><path d="M287.93,146.11" transform="translate(-109.76 -65.14)" style="fill:#fff"/></g><g id="Calque_3" data-name="Calque 3"><path d="M407.36,440.46V360.31l-161.24-4.65c-27.21,27.24-55.91,55.6-90.94,84.8Z" transform="translate(-109.76 -65.14)" style="fill:#244de1"/></g><g id="Calque_1" data-name="Calque 1"><path d="M396.81,135.93V68.74l-37.14-1.59s-65.73,70-127.75,146.7c-60.59,74.93-119.49,154-119.49,154v72.29l30.35.31s73.81-78,140.37-159.71C342.15,208.27,396.81,135.93,396.81,135.93Z" transform="translate(-109.76 -65.14)" style="fill:#244de1"/></g></svg>