<?xml version="1.0" encoding="utf-8"?>
<svg version="1.1" xmlns="http://www.w3.org/2000/svg" xmlns:xlink="http://www.w3.org/1999/xlink" x="0px" y="0px"
	 viewBox="0 0 18 18" style="enable-background:new 0 0 18 18;" xml:space="preserve">
<path d="M14.3,9c1-0.9,1.6-2.2,1.6-3.6c0-2.7-2.2-4.8-4.8-4.8H4.5C3.1,0.5,2,1.6,2,2.9l0,12.1c0,1.3,1.1,2.4,2.4,2.4h6.7
	c2.7,0,4.8-2.2,4.8-4.8C16,11.2,15.3,9.9,14.3,9z M7.6,8.1H6.2c-0.5,0-0.9-0.4-0.9-0.9V4.4c0-0.5,0.4-0.9,0.9-0.9h1.4
	c1.3,0,2.3,1,2.3,2.3C9.9,7.1,8.9,8.1,7.6,8.1z"/>
</svg>
